<svg width="364" height="514" xmlns="http://www.w3.org/2000/svg" xmlns:xlink="http://www.w3.org/1999/xlink" xml:space="preserve" overflow="hidden"><defs><clipPath id="clip0"><rect x="797" y="152" width="364" height="514"/></clipPath></defs><g clip-path="url(#clip0)" transform="translate(-797 -152)"><path d="M226.6 566.865C221.2 584.903 229.581 603.345 229.581 603.345 229.581 603.345 246.716 592.541 252.116 574.504 257.516 556.466 249.136 538.023 249.136 538.023 249.136 538.023 232 548.827 226.6 566.865Z" fill="#F2F2F2" transform="matrix(1 0 0 1.00049 629.103 60.6566)"/><path d="M234.799 567.353C239.343 585.625 230.104 603.652 230.104 603.652 230.104 603.652 213.497 592.054 208.952 573.782 204.407 555.51 213.647 537.483 213.647 537.483 213.647 537.483 230.255 549.081 234.799 567.353Z" fill="#F2F2F2" transform="matrix(1 0 0 1.00049 629.103 60.6566)"/><path d="M336.982 494.113 340.419 485.271 307.954 467.806 302.881 480.855 336.982 494.113Z" fill="#FFB8B8" transform="matrix(1 0 0 1.00049 797 152.085)"/><path d="M523.296 562.433C517.172 560.049 510.275 563.08 507.891 569.204 507.889 569.208 507.888 569.211 507.886 569.215L505.567 575.175 501.993 584.375 501.119 586.63 512.575 591.087 523.655 562.575Z" fill="#2F2E41" transform="matrix(1 0 0 1.00049 629.103 60.6566)"/><path d="M501.994 568.482 500.5 572.445 496.769 582.341 496.679 582.587C487.174 583.809 476.754 581.414 467.116 577.695 463.26 576.208 459.483 574.523 455.801 572.646 450.351 569.892 445.471 566.986 441.578 564.5 435.716 560.738 432.091 557.913 432.091 557.913 432.091 557.913 431.134 558.779 429.401 560.263 427.079 562.249 423.368 565.352 418.668 569.005 416.874 570.408 414.949 571.875 412.892 573.407 397.726 584.656 378.263 554.64 378.263 554.64 378.263 554.64 383.737 551.155 385.167 550.478 389.772 548.3 400.589 543.159 409.922 538.591 414.73 536.235 419.138 534.024 422.098 532.453 432.579 526.873 445.607 537.432 445.607 537.432Z" fill="#2F2E41" transform="matrix(1 0 0 1.00049 629.103 60.6566)"/><path d="M501.994 568.482 500.5 572.445 496.769 582.341 496.679 582.587C487.174 583.809 476.754 581.414 467.116 577.695 463.26 576.208 459.483 574.523 455.801 572.646 450.351 569.892 445.471 566.986 441.578 564.5 435.716 560.738 432.091 557.913 432.091 557.913 432.091 557.913 431.134 558.779 429.401 560.263 427.079 562.249 423.368 565.352 418.668 569.005 416.874 570.408 414.949 571.875 412.892 573.407 397.726 584.656 378.263 554.64 378.263 554.64 378.263 554.64 383.737 551.155 385.167 550.478 389.772 548.3 400.589 543.159 409.922 538.591 414.73 536.235 419.138 534.024 422.098 532.453 432.579 526.873 445.607 537.432 445.607 537.432Z" fill="#000000" fill-opacity="0.14" transform="matrix(1 0 0 1.00049 629.103 60.6566)"/><path d="M275.36 133.321C275.36 206.953 215.67 266.643 142.039 266.643 68.4075 266.643 8.7175 206.953 8.7175 133.321 8.7175 59.69 68.4075-2.739e-06 142.039-2.739e-06 215.67-2.739e-06 275.36 59.69 275.36 133.321Z" fill="#E6BC87" transform="matrix(1 0 0 1.00049 797 152.085)"/><path d="M211.496 135.657C182.55 203.366 213.974 281.721 281.684 310.667 334.362 333.186 395.538 319.537 433.649 276.761 404.706 344.471 326.352 375.9 258.641 346.957 190.929 318.015 159.502 239.661 188.444 171.95 194.114 158.685 201.899 146.428 211.496 135.657Z" fill="#000000" fill-opacity="0.2" transform="matrix(1 0 0 1.00049 629.103 60.6566)"/><path d="M142.405 133.321 142.772 133.321 149.364 511.308 135.446 511.308 142.405 133.321Z" fill="#3F3D56" transform="matrix(1 0 0 1.00049 797 152.085)"/><path d="M295.997 392.438 302.591 392.438 302.591 417.346 295.997 417.346Z" fill="#3F3D56" transform="matrix(0.465811 -0.885195 0.884765 0.466037 430.716 541.942)"/><path d="M759.793 604.197 168.671 604.197C168.244 604.197 167.897 603.85 167.897 603.423 167.897 602.996 168.244 602.649 168.671 602.649L759.793 602.649C760.22 602.649 760.567 602.996 760.567 603.423 760.567 603.85 760.22 604.197 759.793 604.197Z" fill="#3F3D56" transform="matrix(1 0 0 1.00049 629.103 60.6566)"/><path d="M350.299 485.267 305.423 485.267C303.501 485.265 301.944 483.708 301.941 481.786L301.941 462.443C301.941 448.127 313.546 436.523 327.861 436.523 342.176 436.523 353.781 448.127 353.781 462.443L353.781 481.786C353.778 483.708 352.221 485.265 350.299 485.267Z" fill="#2F2E41" transform="matrix(1 0 0 1.00049 629.103 60.6566)"/><path d="M392.976 509.563C389.029 510.256 386.391 514.017 387.085 517.964 387.158 518.385 387.269 518.798 387.416 519.2L375.213 530.422 380.225 539.502 397.235 523.41C400.919 521.78 402.584 517.472 400.954 513.788 399.59 510.705 396.292 508.959 392.976 509.563Z" fill="#FFB8B8" transform="matrix(1 0 0 1.00049 629.103 60.6566)"/><path d="M356.258 560.591C355.707 560.591 355.155 560.567 354.602 560.52 347.91 559.962 341.977 555.999 338.897 550.032L319.348 512.404C316.598 507.113 318.659 500.595 323.951 497.845 328.905 495.272 335.004 496.899 338.018 501.599L356.053 542.068 380.595 522.127 394.805 527.659 370.807 554.152C367.077 558.247 361.797 560.584 356.258 560.591Z" fill="#CCCCCC" transform="matrix(1 0 0 1.00049 629.103 60.6566)"/><path d="M428.574 502.45 406.831 480.707C405.248 479.123 402.68 479.123 401.096 480.707L381.536 500.267C379.952 501.85 379.952 504.418 381.536 506.003L401.851 526.318C403.354 527.82 405.762 527.909 407.371 526.519L428.358 508.387C430.052 506.923 430.24 504.361 428.775 502.667 428.711 502.592 428.644 502.52 428.574 502.45Z" fill="#3F3D56" transform="matrix(1 0 0 1.00049 629.103 60.6566)"/><path d="M257.599 414.879 235.218 392.499 216.748 410.969 238.26 432.479 257.599 414.879Z" fill="#F2F2F2" transform="matrix(1 0 0 1.00049 797 152.085)"/><path d="M245.893 412.305C245.893 417.324 241.824 421.393 236.805 421.393 231.786 421.393 227.717 417.324 227.717 412.305 227.717 407.285 231.786 403.217 236.805 403.217 241.824 403.217 245.893 407.285 245.893 412.305Z" fill="#E6BC87" transform="matrix(1 0 0 1.00049 797 152.085)"/><path d="M408.747 511.435C412.405 507.998 412.584 502.246 409.147 498.588 406.677 495.96 402.888 495.041 399.489 496.245 403.6 493.366 409.267 494.365 412.146 498.476 415.025 502.587 414.026 508.254 409.915 511.133 409.243 511.604 408.51 511.982 407.737 512.255 408.093 512.006 408.43 511.732 408.747 511.435Z" fill="#000000" fill-opacity="0.1" transform="matrix(1 0 0 1.00049 629.103 60.6566)"/><path d="M400.234 501.883C399.15 502.901 399.093 506.567 400.748 508.328 402.403 510.089 405.142 509.279 406.226 508.261 407.31 507.243 406.327 506.402 404.672 504.641 403.018 502.879 401.318 500.864 400.234 501.883Z" fill="#F2F2F2" transform="matrix(1 0 0 1.00049 629.103 60.6566)"/><path d="M244.255 412.453C244.255 413.94 243.05 415.145 241.562 415.145 240.075 415.145 238.87 413.94 238.87 412.453 238.87 410.965 240.075 409.76 241.562 409.76 243.05 409.76 244.255 410.965 244.255 412.453Z" fill="#2F2E41" transform="matrix(1 0 0 1.00049 797 152.085)"/><path d="M239.415 407.301C239.415 408.788 238.209 409.994 236.722 409.994 235.235 409.994 234.029 408.788 234.029 407.301 234.029 405.814 235.235 404.608 236.722 404.608 238.209 404.608 239.415 405.814 239.415 407.301Z" fill="#2F2E41" transform="matrix(1 0 0 1.00049 797 152.085)"/><path d="M242.236 412.453C242.236 412.824 241.934 413.126 241.562 413.126 241.191 413.126 240.889 412.824 240.889 412.453 240.889 412.081 241.191 411.779 241.562 411.779 241.934 411.779 242.236 412.081 242.236 412.453Z" fill="#F2F2F2" transform="matrix(1 0 0 1.00049 797 152.085)"/><path d="M242.189 410.795C242.189 410.981 242.038 411.132 241.853 411.132 241.667 411.132 241.516 410.981 241.516 410.795 241.516 410.609 241.667 410.459 241.853 410.459 242.038 410.459 242.189 410.609 242.189 410.795Z" fill="#F2F2F2" transform="matrix(1 0 0 1.00049 797 152.085)"/><path d="M237.349 405.644C237.349 405.83 237.198 405.98 237.012 405.98 236.826 405.98 236.676 405.83 236.676 405.644 236.676 405.458 236.826 405.307 237.012 405.307 237.198 405.307 237.349 405.458 237.349 405.644Z" fill="#F2F2F2" transform="matrix(1 0 0 1.00049 797 152.085)"/><path d="M237.395 407.301C237.395 407.673 237.094 407.974 236.722 407.974 236.35 407.974 236.049 407.673 236.049 407.301 236.049 406.929 236.35 406.628 236.722 406.628 237.094 406.628 237.395 406.929 237.395 407.301Z" fill="#F2F2F2" transform="matrix(1 0 0 1.00049 797 152.085)"/><path d="M334.239 506.547 338.346 497.997 307.319 478.089 301.258 490.709 334.239 506.547Z" fill="#FFB8B8" transform="matrix(1 0 0 1.00049 797 152.085)"/><path d="M522.271 576.35C516.348 573.503 509.239 575.996 506.391 581.918 506.389 581.922 506.388 581.925 506.386 581.929L503.616 587.693 499.345 596.591 498.301 598.773 509.38 604.096 522.619 576.521Z" fill="#2F2E41" transform="matrix(1 0 0 1.00049 629.103 60.6566)"/><path d="M500.568 580.745 498.773 584.583 494.293 594.161 494.184 594.401C484.614 594.889 474.408 591.701 465.085 587.252 461.355 585.473 457.718 583.503 454.191 581.349 448.968 578.184 444.326 574.911 440.635 572.134 435.08 567.932 431.683 564.838 431.683 564.838 431.683 564.838 430.662 565.627 428.821 566.973 426.352 568.776 422.414 571.584 417.447 574.865 415.551 576.126 413.519 577.441 411.35 578.811 395.365 588.862 372.633 601.102 353.298 603.686 319.339 608.228 327.332 562.911 327.332 562.911L354.358 548.876 365.832 551.205 378.606 553.789 383.132 554.709C383.132 554.709 383.991 554.385 385.469 553.82 390.227 552.001 401.408 547.707 411.064 543.87 416.039 541.889 420.604 540.024 423.675 538.686 434.554 533.927 446.732 545.456 446.732 545.456Z" fill="#2F2E41" transform="matrix(1 0 0 1.00049 629.103 60.6566)"/><path d="M277.878 604.768C281.783 603.872 284.222 599.979 283.326 596.074 283.231 595.657 283.099 595.25 282.932 594.857L294.538 583.018 289.063 574.21 272.908 591.159C269.313 592.978 267.873 597.366 269.691 600.961 271.212 603.969 274.597 605.543 277.878 604.768Z" fill="#FFB8B8" transform="matrix(1 0 0 1.00049 629.103 60.6566)"/><path d="M184.412 376.652C184.412 386.646 176.311 394.747 166.317 394.747 156.324 394.747 148.223 386.646 148.223 376.652 148.223 366.659 156.324 358.558 166.317 358.558 176.311 358.558 184.412 366.659 184.412 376.652Z" fill="#FFB8B8" transform="matrix(1 0 0 1.00049 797 152.085)"/><path d="M310.674 518.264 326.436 562.951 326.342 563.107C324.149 566.732 323.433 569.655 324.27 571.561 324.716 572.542 325.57 573.278 326.606 573.576L363.905 547.504 362.599 537.055 362.672 536.938C366.278 531.17 367.445 525.946 366.142 521.412 364.452 515.528 359.082 512.857 359.028 512.83L358.898 512.728 340.294 490.085 315.425 494.503Z" fill="#CCCCCC" transform="matrix(1 0 0 1.00049 629.103 60.6566)"/><path d="M286.704 596.7 276.145 583.704 301.6 541.684 313.468 505 313.836 505.119 313.468 505C315.973 497.256 324.282 493.009 332.025 495.514 339.769 498.02 344.015 506.328 341.51 514.072 341.093 515.362 340.5 516.589 339.746 517.717L317.959 550.36Z" fill="#CCCCCC" transform="matrix(1 0 0 1.00049 629.103 60.6566)"/><path d="M359.912 464.377 332.472 464.377 332.191 460.437 330.784 464.377 326.559 464.377 326.001 456.568 323.212 464.377 315.036 464.377 315.036 463.99C315.05 452.671 324.221 443.499 335.54 443.486L339.409 443.486C350.727 443.499 359.9 452.671 359.912 463.99Z" fill="#2F2E41" transform="matrix(1 0 0 1.00049 629.103 60.6566)"/><path d="M332.247 488.878C332.041 488.878 331.835 488.859 331.631 488.823L311.538 485.278 311.538 452.07 333.657 452.07 333.109 452.708C325.49 461.595 331.23 476.003 335.33 483.8 335.946 484.966 335.84 486.382 335.057 487.442 334.405 488.344 333.361 488.878 332.247 488.878Z" fill="#2F2E41" transform="matrix(1 0 0 1.00049 629.103 60.6566)"/><path d="M543.259 251.218C543.259 299.932 503.769 339.423 455.055 339.423 406.341 339.423 366.851 299.932 366.851 251.218 366.851 202.505 406.341 163.014 455.055 163.014 503.769 163.014 543.259 202.505 543.259 251.218Z" fill="#3F3D56" transform="matrix(1 0 0 1.00049 797 152.085)"/><path d="M600.401 308.318 600.401 383.362C600.342 384.428 601.158 385.34 602.224 385.399 602.597 385.419 602.97 385.331 603.294 385.143L662.781 347.621C663.758 346.969 664.021 345.65 663.369 344.673 663.214 344.439 663.014 344.24 662.781 344.084L603.294 306.562C602.388 306.02 601.212 306.314 600.669 307.221 600.471 307.552 600.378 307.934 600.401 308.318Z" fill="#F2F2F2" transform="matrix(1 0 0 1.00049 629.103 60.6566)"/></g></svg>